<?xml version="1.0" standalone="no"?>
<!DOCTYPE svg PUBLIC "-//W3C//DTD SVG 20010904//EN"
 "http://www.w3.org/TR/2001/REC-SVG-20010904/DTD/svg10.dtd">
<svg version="1.0" xmlns="http://www.w3.org/2000/svg"
 width="700.000000pt" height="700.000000pt" viewBox="0 0 700.000000 700.000000"
 preserveAspectRatio="xMidYMid meet">
<metadata>
Created by potrace 1.11, written by Peter Selinger 2001-2013
</metadata>
<g transform="translate(0.000000,700.000000) scale(0.100000,-0.100000)"
fill="#000000" stroke="none">
<path d="M2933 4427 l-52 -8 -1 -77 c0 -42 -2 -95 -4 -117 -2 -22 -7 -119 -11
-215 -4 -96 -8 -191 -10 -210 -1 -19 -3 -46 -4 -60 -1 -16 -52 78 -146 268
-141 287 -145 293 -167 281 -45 -24 -194 -122 -303 -199 -466 -331 -618 -541
-490 -673 75 -78 349 -209 615 -296 205 -67 330 -97 340 -81 4 7 16 84 25 171
10 87 21 162 24 168 10 15 102 -1 111 -19 5 -8 13 -51 19 -95 15 -107 32 -215
37 -241 3 -19 10 -21 80 -20 l76 0 -6 121 c-3 66 -8 210 -11 320 -3 110 -8
243 -10 295 -2 52 -7 203 -11 335 -4 132 -8 258 -9 280 -6 97 5 88 -92 72z"/>
<path d="M3130 4427 c-30 -5 -56 -11 -58 -12 -2 -2 74 -258 145 -485 l45 -145
-1 -392 -2 -392 83 2 c49 1 82 6 82 12 -1 6 -5 123 -8 260 -4 138 -9 309 -12
380 l-5 131 116 313 c64 172 115 315 112 317 -5 5 -123 20 -157 19 -23 0 -29
-13 -89 -180 l-65 -180 -29 95 c-59 197 -82 264 -92 265 -5 1 -35 -2 -65 -8z"/>
<path d="M3746 4393 c-3 -15 -8 -55 -11 -88 -3 -33 -8 -76 -10 -95 -3 -19 -7
-60 -10 -90 -3 -30 -8 -71 -10 -90 -2 -19 -9 -82 -15 -140 -6 -58 -13 -121
-15 -140 -8 -65 -24 -205 -30 -265 -3 -33 -8 -76 -10 -95 -2 -19 -7 -57 -10
-85 -3 -27 -12 -108 -20 -180 -8 -71 -15 -136 -15 -144 0 -10 12 -12 53 -8 65
7 345 46 373 52 20 4 21 12 22 92 1 124 -2 136 -36 129 -15 -3 -54 -8 -87 -11
-33 -3 -77 -8 -98 -11 l-39 -6 6 78 c4 44 9 95 11 114 2 19 9 89 15 155 7 66
13 136 15 155 2 19 6 69 10 110 3 41 8 86 10 100 2 14 6 61 10 105 3 44 8 91
10 105 2 14 6 61 10 105 3 44 9 94 11 111 5 31 4 32 -48 44 -29 6 -60 14 -70
16 -11 3 -18 -3 -22 -23z"/>
<path d="M4146 4341 c-1 -3 -4 -80 -5 -171 -2 -91 -4 -205 -6 -255 -2 -49 -6
-241 -10 -426 -4 -184 -8 -349 -10 -366 l-2 -31 68 31 69 30 1 61 c1 34 2 75
4 91 1 17 6 98 9 180 4 83 9 173 11 200 2 28 7 106 10 175 3 69 7 161 10 205
17 291 18 264 -7 269 -40 9 -138 14 -142 7z"/>
<path d="M4439 4224 c-1 -11 -2 -32 -4 -49 -1 -16 -6 -95 -10 -175 -4 -80 -8
-158 -10 -175 -2 -16 -6 -88 -10 -160 -4 -71 -8 -150 -10 -175 -16 -223 -17
-313 -4 -308 8 3 42 15 76 28 35 12 64 30 67 39 3 9 8 77 11 151 4 74 8 136
10 138 3 4 13 -5 97 -86 l65 -64 72 36 c39 20 71 40 72 44 0 4 2 16 4 27 2 11
5 39 6 62 2 24 5 47 8 52 3 4 33 13 66 19 l60 10 308 -179 c169 -98 310 -179
313 -179 12 0 -145 218 -246 340 -62 74 -114 140 -117 147 -2 6 12 37 31 67
20 31 36 58 36 61 0 2 41 72 91 155 50 83 89 153 87 156 -9 8 -247 -196 -353
-303 -104 -105 -113 -111 -160 -118 -27 -4 -58 -9 -67 -11 -15 -4 -18 5 -20
72 l-3 77 -62 23 -62 23 -15 -72 c-9 -40 -22 -99 -29 -132 l-12 -59 -74 262
c-57 203 -77 262 -90 262 -9 0 -40 3 -68 6 -47 6 -53 4 -54 -12z"/>
</g>
</svg>
