<svg id="Layer_1" data-name="Layer 1" xmlns="http://www.w3.org/2000/svg" xmlns:xlink="http://www.w3.org/1999/xlink" viewBox="0 0 129.5 53.02"><defs><style>.cls-1{fill:#094f68;}.cls-2{clip-path:url(#clip-path);}.cls-3{clip-path:url(#clip-path-2);}.cls-4{clip-path:url(#clip-path-3);}.cls-5{clip-path:url(#clip-path-4);}.cls-6{clip-path:url(#clip-path-5);}</style><clipPath id="clip-path"><path class="cls-1" d="M49.86.77,54,0l3.48,11.53L61.56,0l5.72.58L60,20.15l.74,24.43h-5l.17-23.91Z"/></clipPath><clipPath id="clip-path-2"><polygon class="cls-1" points="70.95 0.62 75.21 1.6 71.73 38.03 79.82 37.03 79.82 43.87 66 45.8 70.95 0.62"/></clipPath><clipPath id="clip-path-3"><polygon class="cls-1" points="83.34 2.85 88.3 3.29 86.39 39.97 82.39 41.8 83.34 2.85"/></clipPath><clipPath id="clip-path-4"><polygon class="cls-1" points="92.47 6.16 96.64 6.51 101.34 23.11 103.08 14.63 107.07 16.15 107.07 20.76 111.25 20.15 118.55 12.85 126.02 6.85 117.77 20.76 125.07 29.63 129.5 36.15 110.12 24.85 106.03 25.45 105.51 30.41 101.08 32.58 95.95 27.63 95.34 37.36 90.56 39.19 92.47 6.16"/></clipPath><clipPath id="clip-path-5"><path class="cls-1" d="M33.89,4.33A108.22,108.22,0,0,0,23.66,11c-7.21,5.27-17.9,13.1-16.32,18.81.49,1.76,2,2.77,3.32,3.59,8.91,5.53,19.71,8.72,27.66,10.51L39.7,32.54l3.7.57,1.71,11.47H49.7L48.24,0,44.06.57l-1,22.3Z"/></clipPath></defs><title>fiske_logo</title><path class="cls-1" d="M49.86.77,54,0l3.48,11.53L61.56,0l5.72.58L60,20.15l.74,24.43h-5l.17-23.91Z"/><g class="cls-2"><rect class="cls-1" x="48.48" y="-5.08" width="20.7" height="50.85"/></g><polygon class="cls-1" points="70.95 0.62 75.21 1.6 71.73 38.03 79.82 37.03 79.82 43.87 66 45.8 70.95 0.62"/><g class="cls-3"><rect class="cls-1" x="63.42" y="-3.93" width="18.66" height="56.95"/></g><polygon class="cls-1" points="83.34 2.85 88.3 3.29 86.39 39.97 82.39 41.8 83.34 2.85"/><g class="cls-4"><rect class="cls-1" x="78.48" width="12.08" height="44.58"/></g><polygon class="cls-1" points="92.47 6.16 96.64 6.51 101.34 23.11 103.08 14.63 107.07 16.15 107.07 20.76 111.25 20.15 118.55 12.85 126.02 6.85 117.77 20.76 125.07 29.63 129.5 36.15 110.12 24.85 106.03 25.45 105.51 30.41 101.08 32.58 95.95 27.63 95.34 37.36 90.56 39.19 92.47 6.16"/><g class="cls-5"><rect class="cls-1" x="88.3" width="42.6" height="45.79"/></g><path class="cls-1" d="M33.89,4.33A108.22,108.22,0,0,0,23.66,11c-7.21,5.27-17.9,13.1-16.32,18.81.49,1.76,2,2.77,3.32,3.59,8.91,5.53,19.71,8.72,27.66,10.51L39.7,32.54l3.7.57,1.71,11.47H49.7L48.24,0,44.06.57l-1,22.3Z"/><g class="cls-6"><rect class="cls-1" x="-75.83" y="-7.97" width="128.4" height="72.77"/></g></svg>
