<svg id="Layer_1" data-name="Layer 1" xmlns="http://www.w3.org/2000/svg" xmlns:xlink="http://www.w3.org/1999/xlink" viewBox="0 0 300 144"><defs><style>.cls-1{fill:none;}.cls-2{fill:#094f68;}.cls-3{clip-path:url(#clip-path);}.cls-4{clip-path:url(#clip-path-2);}.cls-5{clip-path:url(#clip-path-3);}.cls-6{clip-path:url(#clip-path-4);}.cls-7{clip-path:url(#clip-path-5);}</style><clipPath id="clip-path"><polygon class="cls-1" points="111.94 24.89 120.26 23.34 127.25 46.51 135.45 23.34 146.95 24.5 132.32 63.84 133.81 112.94 123.76 112.94 124.1 64.88 111.94 24.89"/></clipPath><clipPath id="clip-path-2"><polygon class="cls-1" points="154.32 24.58 162.89 26.55 155.89 99.77 172.15 97.76 172.15 111.51 144.38 115.39 154.32 24.58"/></clipPath><clipPath id="clip-path-3"><polygon class="cls-1" points="179.23 29.07 189.2 29.95 185.36 103.67 177.32 107.35 179.23 29.07"/></clipPath><clipPath id="clip-path-4"><polygon class="cls-1" points="197.58 35.72 205.96 36.42 215.4 69.78 218.9 52.74 226.92 55.8 226.92 65.06 235.32 63.84 249.99 49.16 265.01 37.1 248.43 65.06 263.1 82.89 272 95.99 233.05 73.28 224.83 74.49 223.78 84.46 214.88 88.82 204.57 78.87 203.34 98.42 193.74 102.1 197.58 35.72"/></clipPath><clipPath id="clip-path-5"><path class="cls-1" d="M79.84,32A217,217,0,0,0,59.28,45.45c-14.49,10.59-36,26.32-32.8,37.8,1,3.54,4,5.57,6.67,7.21,17.91,11.12,39.62,17.53,55.6,21.13l2.77-22.85L99,89.88l3.43,23.05h9.23l-2.94-89.59-8.4,1.14-2,44.82Z"/></clipPath></defs><title>fiske_logo</title><path class="cls-2" d="M111.94,24.88l8.32-1.54,7,23.17,8.2-23.17L147,24.5,132.32,63.83l1.49,49.1h-10l.34-48.05Z"/><g class="cls-3"><rect class="cls-2" x="109.17" y="13.13" width="41.6" height="102.2"/></g><polygon class="cls-2" points="154.32 24.58 162.89 26.55 155.89 99.77 172.15 97.76 172.15 111.51 144.38 115.39 154.32 24.58"/><g class="cls-4"><rect class="cls-2" x="139.19" y="15.44" width="37.5" height="114.46"/></g><polygon class="cls-2" points="179.23 29.07 189.2 29.95 185.36 103.67 177.32 107.35 179.23 29.07"/><g class="cls-5"><rect class="cls-2" x="169.46" y="23.34" width="24.28" height="89.6"/></g><polygon class="cls-2" points="197.58 35.72 205.96 36.42 215.4 69.78 218.9 52.74 226.92 55.8 226.92 65.06 235.32 63.84 249.99 49.16 265.01 37.1 248.43 65.06 263.1 82.89 272 95.99 233.05 73.28 224.83 74.49 223.78 84.46 214.88 88.82 204.57 78.87 203.34 98.42 193.74 102.1 197.58 35.72"/><g class="cls-6"><rect class="cls-2" x="189.2" y="23.34" width="85.62" height="92.03"/></g><path class="cls-2" d="M79.84,32A217,217,0,0,0,59.28,45.45c-14.49,10.59-36,26.32-32.8,37.8,1,3.54,4,5.57,6.67,7.21,17.91,11.12,39.62,17.53,55.6,21.13l2.77-22.85L99,89.88l3.43,23.05h9.23l-2.94-89.59-8.4,1.14-2,44.82Z"/><g class="cls-7"><rect class="cls-2" x="-140.67" y="7.32" width="258.06" height="146.25"/></g></svg>
